<?xml version="1.0" encoding="utf-8"?>
<!-- Generator: Adobe Illustrator 15.0.0, SVG Export Plug-In . SVG Version: 6.00 Build 0)  -->
<!DOCTYPE svg PUBLIC "-//W3C//DTD SVG 1.1//EN" "http://www.w3.org/Graphics/SVG/1.1/DTD/svg11.dtd">
<svg version="1.1" id="Layer_1" xmlns="http://www.w3.org/2000/svg" xmlns:xlink="http://www.w3.org/1999/xlink" x="0px" y="0px"
	 width="117.5px" height="45px" viewBox="0 0 117.5 45" enable-background="new 0 0 117.5 45" xml:space="preserve">
<g>
	<path d="M58.924,43.229c0,0.769-0.623,1.391-1.389,1.391H2.883c-0.768,0-1.39-0.622-1.39-1.391V1.774c0-0.768,0.622-1.39,1.39-1.39
		h54.652c0.766,0,1.389,0.623,1.389,1.39V43.229z"/>
	
		<linearGradient id="SVGID_1_" gradientUnits="userSpaceOnUse" x1="-9346.2578" y1="1100.584" x2="-9346.2578" y2="1108.2344" gradientTransform="matrix(1 0 0 -1 9367.0342 1110.8652)">
		<stop  offset="0" style="stop-color:#2682F0"/>
		<stop  offset="1" style="stop-color:#67A6E3"/>
	</linearGradient>
	<polygon fill="url(#SVGID_1_)" points="15.98,10.281 16.47,2.631 25.571,7.83 	"/>
	
		<linearGradient id="SVGID_2_" gradientUnits="userSpaceOnUse" x1="-9334.2412" y1="1094.3633" x2="-9345.2002" y2="1094.3633" gradientTransform="matrix(1 0 0 -1 9367.0342 1110.8652)">
		<stop  offset="0" style="stop-color:#2682F0"/>
		<stop  offset="1" style="stop-color:#67A6E3"/>
	</linearGradient>
	<polygon fill="url(#SVGID_2_)" points="32.794,11.295 21.835,14.472 32.532,21.708 	"/>
	
		<linearGradient id="SVGID_3_" gradientUnits="userSpaceOnUse" x1="-9367.0342" y1="1086.4063" x2="-9337.4316" y2="1086.4063" gradientTransform="matrix(1 0 0 -1 9367.0342 1110.8652)">
		<stop  offset="0" style="stop-color:#2682F0"/>
		<stop  offset="1" style="stop-color:#67A6E3"/>
	</linearGradient>
	<polygon fill="url(#SVGID_3_)" points="0.058,5.971 29.602,32.004 29.43,42.946 0,13.746 	"/>
	
		<linearGradient id="SVGID_4_" gradientUnits="userSpaceOnUse" x1="-9337.6045" y1="1075.666" x2="-9325.6836" y2="1075.666" gradientTransform="matrix(1 0 0 -1 9367.0342 1110.8652)">
		<stop  offset="0" style="stop-color:#2682F0"/>
		<stop  offset="1" style="stop-color:#67A6E3"/>
	</linearGradient>
	<polygon fill="url(#SVGID_4_)" points="29.587,32.004 41.236,27.453 41.351,38.107 29.43,42.946 	"/>
	
		<linearGradient id="SVGID_5_" gradientUnits="userSpaceOnUse" x1="-9313.5879" y1="1084.9229" x2="-9305.0645" y2="1084.9229" gradientTransform="matrix(1 0 0 -1 9367.0342 1110.8652)">
		<stop  offset="0" style="stop-color:#2682F0"/>
		<stop  offset="1" style="stop-color:#67A6E3"/>
	</linearGradient>
	<polygon fill="url(#SVGID_5_)" points="53.446,22.025 61.684,18.628 61.97,29.168 53.503,33.257 	"/>
	
		<linearGradient id="SVGID_6_" gradientUnits="userSpaceOnUse" x1="-9336.291" y1="1089.5449" x2="-9313.4961" y2="1089.5449" gradientTransform="matrix(1 0 0 -1 9367.0342 1110.8652)">
		<stop  offset="0" style="stop-color:#2682F0"/>
		<stop  offset="1" style="stop-color:#67A6E3"/>
	</linearGradient>
	<polygon fill="url(#SVGID_6_)" points="30.999,9.348 30.743,20.541 53.529,33.293 53.537,22.06 	"/>
	<polygon fill="#94CCF2" points="7.43,4.531 0.058,5.971 29.602,32.004 41.252,27.453 22,14.437 32.712,11.327 53.43,22.039 
		61.684,18.642 22.346,1.306 16.471,2.631 25.539,7.813 15.953,10.291 	"/>
	<g>
		<g>
			<path fill="#2682F0" d="M63.545,25.431h11.86v4.325h-3.979v13.19h-3.9v-13.19h-3.979L63.545,25.431L63.545,25.431z"/>
			<path fill="#2682F0" d="M83.736,40.055h-4.432l-0.613,2.895h-3.983l4.745-17.519h4.256l4.744,17.519h-4.085L83.736,40.055z
				 M82.927,36.268l-1.394-6.297l-1.379,6.297H82.927z"/>
			<path fill="#2682F0" d="M89.014,37.15l3.713-0.321c0.079,0.837,0.244,1.473,0.491,1.911c0.4,0.71,0.979,1.063,1.722,1.063
				c0.56,0,0.987-0.182,1.287-0.544c0.304-0.36,0.453-0.782,0.453-1.261c0-0.454-0.145-0.86-0.431-1.218
				c-0.287-0.359-0.953-0.698-1.999-1.02c-1.711-0.532-2.93-1.241-3.66-2.127c-0.734-0.884-1.103-2.011-1.103-3.381
				c0-0.899,0.188-1.75,0.563-2.55c0.376-0.802,0.942-1.432,1.697-1.891c0.754-0.459,1.789-0.688,3.104-0.688
				c1.612,0,2.845,0.417,3.689,1.25c0.847,0.832,1.354,2.156,1.51,3.975l-3.676,0.297c-0.098-0.786-0.304-1.36-0.617-1.722
				c-0.312-0.355-0.744-0.538-1.296-0.538c-0.454,0-0.795,0.137-1.022,0.401c-0.229,0.267-0.348,0.591-0.348,0.973
				c0,0.279,0.098,0.531,0.284,0.753c0.187,0.231,0.621,0.446,1.313,0.646c1.703,0.511,2.925,1.021,3.664,1.547
				c0.734,0.521,1.272,1.17,1.608,1.939c0.335,0.771,0.503,1.64,0.503,2.596c0,1.123-0.225,2.156-0.671,3.104
				c-0.449,0.947-1.075,1.666-1.879,2.156c-0.804,0.489-1.813,0.734-3.039,0.734c-2.146,0-3.636-0.574-4.462-1.722
				C89.59,40.377,89.123,38.921,89.014,37.15z"/>
			<path fill="#2682F0" d="M102.451,25.431h3.9v6.619l4.086-6.619h5.188l-4.605,6.611l4.813,10.904h-4.805l-2.661-7.204l-2.02,2.93
				v4.274h-3.897L102.451,25.431L102.451,25.431z"/>
		</g>
	</g>
	<g>
		<path d="M65.073,2.232h3.618v6.049h3.953V2.232h3.634v17.286h-3.634v-6.992h-3.953v6.992h-3.618V2.232z"/>
		<path d="M85.88,16.666h-4.108l-0.566,2.853H77.51l4.4-17.286h3.945l4.398,17.286h-3.789L85.88,16.666z M85.13,12.927l-1.292-6.214
			l-1.279,6.214H85.13z"/>
		<path d="M91.452,19.519V2.232h6.028c1.121,0,1.974,0.141,2.563,0.424c0.59,0.284,1.066,0.808,1.433,1.576
			c0.356,0.766,0.541,1.699,0.541,2.799c0,0.959-0.141,1.787-0.414,2.479c-0.279,0.697-0.658,1.26-1.146,1.693
			c-0.313,0.275-0.731,0.502-1.271,0.684c0.435,0.212,0.746,0.425,0.94,0.641c0.133,0.141,0.327,0.441,0.579,0.908
			c0.252,0.464,0.423,0.823,0.507,1.075l1.751,5.008H98.88l-1.933-5.283c-0.246-0.687-0.463-1.127-0.655-1.332
			c-0.26-0.27-0.558-0.401-0.886-0.401h-0.321v7.015L91.452,19.519L91.452,19.519z M95.085,9.237h1.526
			c0.164,0,0.481-0.079,0.959-0.237c0.238-0.07,0.436-0.25,0.587-0.542s0.228-0.625,0.228-1.003c0-0.558-0.119-0.987-0.359-1.286
			c-0.236-0.298-0.688-0.446-1.349-0.446h-1.592V9.237z"/>
		<path d="M104.175,2.232h5.374c1.063,0,1.916,0.213,2.568,0.637c0.652,0.425,1.191,1.034,1.615,1.827
			c0.426,0.794,0.731,1.718,0.927,2.771c0.192,1.053,0.29,2.169,0.29,3.349c0,1.848-0.146,3.28-0.428,4.299
			c-0.287,1.018-0.686,1.871-1.188,2.558c-0.506,0.689-1.05,1.146-1.63,1.374c-0.793,0.314-1.514,0.471-2.156,0.471h-5.374
			L104.175,2.232L104.175,2.232z M107.792,6.147v9.445h0.888c0.756,0,1.293-0.124,1.613-0.371c0.318-0.248,0.568-0.681,0.75-1.298
			c0.182-0.616,0.27-1.616,0.27-3.001c0-1.832-0.199-3.084-0.604-3.761c-0.404-0.676-1.074-1.014-2.011-1.014H107.792z"/>
	</g>
</g>
</svg>
